<svg width="401" height="37" viewBox="0 0 401 37" fill="none" xmlns="http://www.w3.org/2000/svg">
<path d="M34.9785 4.59V36H28.6785V15.57L20.2635 36H15.4935L7.03351 15.57V36H0.73351V4.59H7.88851L17.8785 27.945L27.8685 4.59H34.9785ZM68.8821 22.995C68.8821 23.895 68.8221 24.705 68.7021 25.425H50.4771C50.6271 27.225 51.2571 28.635 52.3671 29.655C53.4771 30.675 54.8421 31.185 56.4621 31.185C58.8021 31.185 60.4671 30.18 61.4571 28.17H68.2521C67.5321 30.57 66.1521 32.55 64.1121 34.11C62.0721 35.64 59.5671 36.405 56.5971 36.405C54.1971 36.405 52.0371 35.88 50.1171 34.83C48.2271 33.75 46.7421 32.235 45.6621 30.285C44.6121 28.335 44.0871 26.085 44.0871 23.535C44.0871 20.955 44.6121 18.69 45.6621 16.74C46.7121 14.79 48.1821 13.29 50.0721 12.24C51.9621 11.19 54.1371 10.665 56.5971 10.665C58.9671 10.665 61.0821 11.175 62.9421 12.195C64.8321 13.215 66.2871 14.67 67.3071 16.56C68.3571 18.42 68.8821 20.565 68.8821 22.995ZM62.3571 21.195C62.3271 19.575 61.7421 18.285 60.6021 17.325C59.4621 16.335 58.0671 15.84 56.4171 15.84C54.8571 15.84 53.5371 16.32 52.4571 17.28C51.4071 18.21 50.7621 19.515 50.5221 21.195H62.3571ZM76.3606 23.445C76.3606 20.925 76.8556 18.69 77.8456 16.74C78.8656 14.79 80.2456 13.29 81.9856 12.24C83.7256 11.19 85.6606 10.665 87.7906 10.665C89.4106 10.665 90.9556 11.025 92.4256 11.745C93.8956 12.435 95.0656 13.365 95.9356 14.535V2.7H102.326V36H95.9356V32.31C95.1556 33.54 94.0606 34.53 92.6506 35.28C91.2406 36.03 89.6056 36.405 87.7456 36.405C85.6456 36.405 83.7256 35.865 81.9856 34.785C80.2456 33.705 78.8656 32.19 77.8456 30.24C76.8556 28.26 76.3606 25.995 76.3606 23.445ZM95.9806 23.535C95.9806 22.005 95.6806 20.7 95.0806 19.62C94.4806 18.51 93.6706 17.67 92.6506 17.1C91.6306 16.5 90.5356 16.2 89.3656 16.2C88.1956 16.2 87.1156 16.485 86.1256 17.055C85.1356 17.625 84.3256 18.465 83.6956 19.575C83.0956 20.655 82.7956 21.945 82.7956 23.445C82.7956 24.945 83.0956 26.265 83.6956 27.405C84.3256 28.515 85.1356 29.37 86.1256 29.97C87.1456 30.57 88.2256 30.87 89.3656 30.87C90.5356 30.87 91.6306 30.585 92.6506 30.015C93.6706 29.415 94.4806 28.575 95.0806 27.495C95.6806 26.385 95.9806 25.065 95.9806 23.535ZM116.174 8.1C115.064 8.1 114.134 7.755 113.384 7.065C112.664 6.345 112.304 5.46 112.304 4.41C112.304 3.36 112.664 2.49 113.384 1.8C114.134 1.08 115.064 0.719998 116.174 0.719998C117.284 0.719998 118.199 1.08 118.919 1.8C119.669 2.49 120.044 3.36 120.044 4.41C120.044 5.46 119.669 6.345 118.919 7.065C118.199 7.755 117.284 8.1 116.174 8.1ZM119.279 11.07V36H112.979V11.07H119.279ZM128.383 23.445C128.383 20.925 128.878 18.69 129.868 16.74C130.888 14.79 132.253 13.29 133.963 12.24C135.703 11.19 137.638 10.665 139.768 10.665C141.628 10.665 143.248 11.04 144.628 11.79C146.038 12.54 147.163 13.485 148.003 14.625V11.07H154.348V36H148.003V32.355C147.193 33.525 146.068 34.5 144.628 35.28C143.218 36.03 141.583 36.405 139.723 36.405C137.623 36.405 135.703 35.865 133.963 34.785C132.253 33.705 130.888 32.19 129.868 30.24C128.878 28.26 128.383 25.995 128.383 23.445ZM148.003 23.535C148.003 22.005 147.703 20.7 147.103 19.62C146.503 18.51 145.693 17.67 144.673 17.1C143.653 16.5 142.558 16.2 141.388 16.2C140.218 16.2 139.138 16.485 138.148 17.055C137.158 17.625 136.348 18.465 135.718 19.575C135.118 20.655 134.818 21.945 134.818 23.445C134.818 24.945 135.118 26.265 135.718 27.405C136.348 28.515 137.158 29.37 138.148 29.97C139.168 30.57 140.248 30.87 141.388 30.87C142.558 30.87 143.653 30.585 144.673 30.015C145.693 29.415 146.503 28.575 147.103 27.495C147.703 26.385 148.003 25.065 148.003 23.535ZM203.129 14.31C203.129 15.99 202.724 17.565 201.914 19.035C201.134 20.505 199.889 21.69 198.179 22.59C196.499 23.49 194.369 23.94 191.789 23.94H186.524V36H180.224V4.59H191.789C194.219 4.59 196.289 5.01 197.999 5.85C199.709 6.69 200.984 7.845 201.824 9.315C202.694 10.785 203.129 12.45 203.129 14.31ZM191.519 18.855C193.259 18.855 194.549 18.465 195.389 17.685C196.229 16.875 196.649 15.75 196.649 14.31C196.649 11.25 194.939 9.72 191.519 9.72H186.524V18.855H191.519ZM210.482 23.445C210.482 20.925 210.977 18.69 211.967 16.74C212.987 14.79 214.352 13.29 216.062 12.24C217.802 11.19 219.737 10.665 221.867 10.665C223.727 10.665 225.347 11.04 226.727 11.79C228.137 12.54 229.262 13.485 230.102 14.625V11.07H236.447V36H230.102V32.355C229.292 33.525 228.167 34.5 226.727 35.28C225.317 36.03 223.682 36.405 221.822 36.405C219.722 36.405 217.802 35.865 216.062 34.785C214.352 33.705 212.987 32.19 211.967 30.24C210.977 28.26 210.482 25.995 210.482 23.445ZM230.102 23.535C230.102 22.005 229.802 20.7 229.202 19.62C228.602 18.51 227.792 17.67 226.772 17.1C225.752 16.5 224.657 16.2 223.487 16.2C222.317 16.2 221.237 16.485 220.247 17.055C219.257 17.625 218.447 18.465 217.817 19.575C217.217 20.655 216.917 21.945 216.917 23.445C216.917 24.945 217.217 26.265 217.817 27.405C218.447 28.515 219.257 29.37 220.247 29.97C221.267 30.57 222.347 30.87 223.487 30.87C224.657 30.87 225.752 30.585 226.772 30.015C227.792 29.415 228.602 28.575 229.202 27.495C229.802 26.385 230.102 25.065 230.102 23.535ZM253.4 14.94C254.21 13.62 255.26 12.585 256.55 11.835C257.87 11.085 259.37 10.71 261.05 10.71V17.325H259.385C257.405 17.325 255.905 17.79 254.885 18.72C253.895 19.65 253.4 21.27 253.4 23.58V36H247.1V11.07H253.4V14.94ZM277.128 16.245V28.305C277.128 29.145 277.323 29.76 277.713 30.15C278.133 30.51 278.823 30.69 279.783 30.69H282.708V36H278.748C273.438 36 270.783 33.42 270.783 28.26V16.245H267.813V11.07H270.783V4.905H277.128V11.07H282.708V16.245H277.128ZM305.554 10.71C308.524 10.71 310.924 11.655 312.754 13.545C314.584 15.405 315.499 18.015 315.499 21.375V36H309.199V22.23C309.199 20.25 308.704 18.735 307.714 17.685C306.724 16.605 305.374 16.065 303.664 16.065C301.924 16.065 300.544 16.605 299.524 17.685C298.534 18.735 298.039 20.25 298.039 22.23V36H291.739V11.07H298.039V14.175C298.879 13.095 299.944 12.255 301.234 11.655C302.554 11.025 303.994 10.71 305.554 10.71ZM349.165 22.995C349.165 23.895 349.105 24.705 348.985 25.425H330.76C330.91 27.225 331.54 28.635 332.65 29.655C333.76 30.675 335.125 31.185 336.745 31.185C339.085 31.185 340.75 30.18 341.74 28.17H348.535C347.815 30.57 346.435 32.55 344.395 34.11C342.355 35.64 339.85 36.405 336.88 36.405C334.48 36.405 332.32 35.88 330.4 34.83C328.51 33.75 327.025 32.235 325.945 30.285C324.895 28.335 324.37 26.085 324.37 23.535C324.37 20.955 324.895 18.69 325.945 16.74C326.995 14.79 328.465 13.29 330.355 12.24C332.245 11.19 334.42 10.665 336.88 10.665C339.25 10.665 341.365 11.175 343.225 12.195C345.115 13.215 346.57 14.67 347.59 16.56C348.64 18.42 349.165 20.565 349.165 22.995ZM342.64 21.195C342.61 19.575 342.025 18.285 340.885 17.325C339.745 16.335 338.35 15.84 336.7 15.84C335.14 15.84 333.82 16.32 332.74 17.28C331.69 18.21 331.045 19.515 330.805 21.195H342.64ZM364.564 14.94C365.374 13.62 366.424 12.585 367.714 11.835C369.034 11.085 370.534 10.71 372.214 10.71V17.325H370.549C368.569 17.325 367.069 17.79 366.049 18.72C365.059 19.65 364.564 21.27 364.564 23.58V36H358.264V11.07H364.564V14.94ZM390.497 36.405C388.457 36.405 386.627 36.045 385.007 35.325C383.387 34.575 382.097 33.57 381.137 32.31C380.207 31.05 379.697 29.655 379.607 28.125H385.952C386.072 29.085 386.537 29.88 387.347 30.51C388.187 31.14 389.222 31.455 390.452 31.455C391.652 31.455 392.582 31.215 393.242 30.735C393.932 30.255 394.277 29.64 394.277 28.89C394.277 28.08 393.857 27.48 393.017 27.09C392.207 26.67 390.902 26.22 389.102 25.74C387.242 25.29 385.712 24.825 384.512 24.345C383.342 23.865 382.322 23.13 381.452 22.14C380.612 21.15 380.192 19.815 380.192 18.135C380.192 16.755 380.582 15.495 381.362 14.355C382.172 13.215 383.312 12.315 384.782 11.655C386.282 10.995 388.037 10.665 390.047 10.665C393.017 10.665 395.387 11.415 397.157 12.915C398.927 14.385 399.902 16.38 400.082 18.9H394.052C393.962 17.91 393.542 17.13 392.792 16.56C392.072 15.96 391.097 15.66 389.867 15.66C388.727 15.66 387.842 15.87 387.212 16.29C386.612 16.71 386.312 17.295 386.312 18.045C386.312 18.885 386.732 19.53 387.572 19.98C388.412 20.4 389.717 20.835 391.487 21.285C393.287 21.735 394.772 22.2 395.942 22.68C397.112 23.16 398.117 23.91 398.957 24.93C399.827 25.92 400.277 27.24 400.307 28.89C400.307 30.33 399.902 31.62 399.092 32.76C398.312 33.9 397.172 34.8 395.672 35.46C394.202 36.09 392.477 36.405 390.497 36.405Z" fill="white"/>
</svg>
